<?xml version="1.0" encoding="UTF-8"?>
<svg width="14px" height="14px" viewBox="0 0 14 14" version="1.1" xmlns="http://www.w3.org/2000/svg" xmlns:xlink="http://www.w3.org/1999/xlink">
    <!-- Generator: Sketch 52.2 (67145) - http://www.bohemiancoding.com/sketch -->
    <title>windows_close_b</title>
    <desc>Created with Sketch.</desc>
    <g id="Sample" stroke="none" stroke-width="1" fill="none" fill-rule="evenodd">
        <g id="Event_popup" transform="translate(-436.000000, -69.000000)" fill="#2F2F2F" fill-rule="nonzero">
            <g id="Group" transform="translate(68.000000, 59.000000)">
                <g id="windows_close_b" transform="translate(363.000000, 5.000000)">
                    <path d="M13,11 L19,11 C19.5522847,11 20,11.4477153 20,12 C20,12.5522847 19.5522847,13 19,13 L13,13 L13,19 C13,19.5522847 12.5522847,20 12,20 C11.4477153,20 11,19.5522847 11,19 L11,13 L5,13 C4.44771525,13 4,12.5522847 4,12 C4,11.4477153 4.44771525,11 5,11 L11,11 L11,5 C11,4.44771525 11.4477153,4 12,4 C12.5522847,4 13,4.44771525 13,5 L13,11 Z" id="Combined-Shape" transform="translate(12.000000, 12.000000) rotate(-315.000000) translate(-12.000000, -12.000000) "></path>
                </g>
            </g>
        </g>
    </g>
</svg>